<?xml version="1.0" standalone="no"?>
<!DOCTYPE svg PUBLIC "-//W3C//DTD SVG 20010904//EN"
 "http://www.w3.org/TR/2001/REC-SVG-20010904/DTD/svg10.dtd">
<svg version="1.0" xmlns="http://www.w3.org/2000/svg"
 width="300.000000pt" height="300.000000pt" viewBox="0 0 300.000000 300.000000"
 preserveAspectRatio="xMidYMid meet">
<metadata>
Created by potrace 1.10, written by Peter Selinger 2001-2011
</metadata>
<g transform="translate(0.000000,300.000000) scale(0.100000,-0.100000)"
fill="#000000" stroke="none">
<path d="M1355 2491 c-219 -36 -406 -131 -560 -286 -131 -131 -213 -273 -262
-453 -23 -84 -27 -117 -27 -242 -1 -163 15 -254 67 -380 129 -317 401 -540
742 -611 98 -21 305 -16 408 9 301 74 549 275 679 552 67 143 90 250 90 420 0
123 -4 160 -26 245 -91 356 -376 638 -731 726 -89 22 -298 33 -380 20z m385
-37 c197 -49 400 -179 526 -337 76 -96 154 -248 185 -362 26 -100 37 -311 20
-411 -66 -386 -345 -695 -718 -796 -119 -32 -338 -36 -462 -9 -279 62 -515
237 -654 487 -186 336 -157 757 73 1062 111 148 252 258 416 323 198 80 405
94 614 43z"/>
<path d="M1435 2350 c-16 -4 -22 -8 -12 -9 13 -1 17 -10 17 -36 0 -19 5 -35
10 -35 6 0 10 14 10 31 0 19 7 37 18 45 20 15 7 17 -43 4z"/>
<path d="M1558 2310 c-3 -36 -1 -41 20 -47 30 -7 65 23 43 36 -9 6 -10 10 -2
16 18 10 -6 35 -34 35 -19 0 -23 -6 -27 -40z m43 17 c-1 -12 -15 -9 -19 4 -3
6 1 10 8 8 6 -3 11 -8 11 -12z m9 -38 c0 -5 -9 -9 -20 -9 -19 0 -26 11 -14 23
8 8 34 -3 34 -14z"/>
<path d="M1282 2324 c-44 -31 -12 -95 38 -79 21 7 36 46 25 64 -14 24 -42 30
-63 15z m43 -34 c0 -29 -32 -41 -41 -16 -9 24 4 48 23 44 12 -2 18 -12 18 -28z"/>
<path d="M1736 2279 c1 -23 8 -47 14 -53 8 -8 10 2 8 38 -2 27 -8 51 -14 53
-7 2 -10 -11 -8 -38z"/>
<path d="M1699 2273 c-19 -21 -20 -25 -6 -20 10 4 22 7 26 7 4 0 7 9 8 20 2
25 1 25 -28 -7z"/>
<path d="M1117 2262 c-22 -24 -21 -38 2 -61 40 -40 97 8 66 55 -18 29 -46 31
-68 6z m58 -22 c7 -23 -1 -40 -19 -40 -20 0 -39 27 -32 45 8 22 44 18 51 -5z"/>
<path d="M1840 2241 l-20 -40 30 -16 c33 -17 41 -10 13 11 -17 12 -17 15 -1
43 9 17 13 33 8 36 -5 3 -18 -12 -30 -34z"/>
<path d="M994 2192 l-21 -17 25 -32 c13 -18 29 -33 34 -33 6 0 4 7 -3 16 -11
14 -10 18 6 31 19 13 18 14 -7 8 -32 -8 -35 0 -11 27 20 23 5 23 -23 0z"/>
<path d="M1957 2173 l-26 -36 25 -20 c14 -10 28 -16 31 -13 4 3 -2 12 -12 20
-18 13 -18 14 3 44 13 17 18 33 14 36 -5 3 -21 -11 -35 -31z"/>
<path d="M1348 2140 c-506 -125 -678 -745 -306 -1108 71 -70 127 -106 218
-141 155 -60 301 -63 461 -7 278 97 469 401 430 685 -23 171 -90 302 -214 417
-159 147 -381 205 -589 154z m365 -33 c94 -34 169 -82 241 -153 72 -72 115
-141 153 -244 24 -68 27 -88 27 -210 1 -148 -13 -205 -77 -320 -45 -81 -178
-208 -257 -247 -121 -59 -163 -68 -305 -68 -116 0 -138 3 -203 27 -102 37
-174 82 -246 154 -339 339 -206 905 249 1065 119 42 297 40 418 -4z"/>
<path d="M1300 1837 c-49 -16 -133 -102 -148 -153 -28 -97 -10 -181 53 -252
54 -59 108 -84 187 -83 l58 0 0 -124 c0 -99 -3 -127 -16 -139 -14 -15 -11 -16
37 -16 50 0 51 1 36 18 -12 13 -17 36 -17 78 1 54 4 63 38 103 l38 43 69 -98
c38 -55 69 -109 70 -121 0 -21 5 -23 48 -23 l49 0 -31 26 c-17 14 -65 75 -106
135 l-76 110 58 76 c32 42 79 98 105 125 43 44 45 48 20 41 -15 -3 -29 -10
-30 -15 -2 -5 -51 -68 -109 -141 -58 -72 -113 -143 -124 -157 l-18 -25 -1 60
c0 60 0 60 47 95 147 109 127 338 -36 422 -58 31 -134 36 -201 15z m158 -22
c51 -22 81 -52 108 -110 45 -96 26 -213 -46 -280 l-32 -30 4 80 c2 44 7 87 11
95 6 12 -1 15 -33 15 -42 0 -47 -4 -30 -21 7 -7 10 -47 8 -100 l-3 -89 -55 -3
c-71 -3 -123 26 -167 91 -121 181 46 431 235 352z"/>
<path d="M655 1510 c-4 -7 -3 -16 3 -22 14 -14 45 -2 40 15 -6 16 -34 21 -43
7z"/>
<path d="M2305 1510 c-4 -7 -3 -16 3 -22 14 -14 45 -2 40 15 -6 16 -34 21 -43
7z"/>
<path d="M1020 890 c0 -5 5 -10 10 -10 6 0 10 5 10 10 0 6 -4 10 -10 10 -5 0
-10 -4 -10 -10z"/>
<path d="M1957 879 c-4 -16 -11 -19 -26 -14 -12 3 -21 2 -21 -4 0 -12 69 -55
77 -48 7 8 -7 87 -17 87 -4 0 -10 -9 -13 -21z m21 -37 c2 -7 -2 -10 -12 -6 -9
3 -16 11 -16 16 0 13 23 5 28 -10z"/>
<path d="M1110 832 c0 -4 -14 -16 -31 -26 -33 -20 -33 -34 0 -16 19 9 21 8 21
-15 0 -14 5 -25 10 -25 6 0 10 13 10 29 0 16 3 36 6 45 3 9 1 16 -5 16 -6 0
-11 -4 -11 -8z"/>
<path d="M1802 804 c-12 -8 -22 -20 -22 -26 0 -6 8 -4 18 5 23 21 36 21 51 3
15 -18 3 -46 -20 -46 -10 0 -19 -4 -19 -10 0 -14 23 -13 42 3 26 21 29 46 8
67 -24 24 -29 24 -58 4z"/>
<path d="M1202 753 c-14 -45 -10 -50 22 -30 26 17 36 13 36 -14 0 -28 19 -33
29 -7 19 52 22 68 12 68 -6 0 -11 -9 -11 -19 0 -11 -4 -23 -10 -26 -5 -3 -10
2 -10 13 0 29 -11 34 -32 15 -19 -17 -19 -16 -13 10 11 41 -10 32 -23 -10z"/>
<path d="M1710 768 c0 -18 -37 -31 -46 -17 -3 5 -9 9 -15 9 -5 0 3 -18 17 -40
15 -22 30 -40 35 -40 10 0 24 89 15 97 -3 4 -6 -1 -6 -9z m-10 -44 c0 -8 -4
-12 -10 -9 -5 3 -10 10 -10 16 0 5 5 9 10 9 6 0 10 -7 10 -16z"/>
<path d="M1370 749 c0 -4 10 -9 22 -11 30 -4 35 -28 6 -29 -17 -1 -18 -3 -5
-6 29 -8 21 -31 -9 -25 -19 3 -25 1 -20 -7 4 -6 20 -11 37 -11 25 0 29 4 29
29 0 16 3 36 6 44 4 11 -4 16 -30 19 -20 2 -36 1 -36 -3z"/>
<path d="M1519 729 c-18 -18 -19 -23 -6 -42 8 -12 26 -23 41 -25 25 -3 26 -1
26 42 0 39 -3 46 -20 46 -11 0 -29 -9 -41 -21z m41 -29 c0 -33 -14 -40 -28
-12 -12 21 -5 42 14 42 9 0 14 -11 14 -30z"/>
</g>
</svg>
